<svg xmlns="http://www.w3.org/2000/svg" xmlns:xlink="http://www.w3.org/1999/xlink" width="500" zoomAndPan="magnify" viewBox="0 0 375 86.999996" height="116" preserveAspectRatio="xMidYMid meet" version="1.0"><defs><g/></defs><path fill="#5ce1e6" d="M 16.710938 55.320312 C 9.898438 43.925781 13.613281 29.164062 25.007812 22.347656 C 33.363281 17.351562 43.484375 18.117188 50.996094 23.324219 C 42.941406 16.382812 31.238281 14.765625 21.609375 20.519531 C 9.582031 27.710938 5.65625 43.296875 12.851562 55.324219 C 18.609375 64.953125 29.683594 69.0625 40.066406 66.765625 C 30.984375 67.789062 21.707031 63.675781 16.710938 55.320312 Z M 16.710938 55.320312 " fill-opacity="1" fill-rule="nonzero"/><path fill="#0255a3" d="M 58.261719 52.835938 C 58.355469 52.28125 58.199219 51.730469 57.707031 51.175781 C 56.480469 49.851562 53.5 52.003906 53.5 52.003906 C 53.46875 52.035156 53.4375 52.066406 53.410156 52.066406 C 57.308594 45.859375 58.015625 38.054688 54.054688 31.417969 C 49.902344 24.472656 41.085938 20.726562 33.496094 21.21875 C 42.625 19.34375 52.300781 23.027344 57.339844 31.480469 C 61.394531 38.242188 61.488281 46.261719 58.261719 52.835938 Z M 58.261719 52.835938 " fill-opacity="1" fill-rule="nonzero"/><path fill="#0255a3" d="M 53.53125 53.386719 C 52.761719 53.96875 52.023438 54.492188 51.316406 54.953125 C 45.789062 58.578125 42.007812 58.886719 39.550781 58.179688 C 36.539062 57.257812 35.460938 54.738281 35.460938 54.738281 C 44.832031 57.503906 46.21875 56.09375 46.402344 55.046875 C 46.523438 54.492188 46.308594 54 45.632812 53.695312 C 45.417969 53.601562 45.140625 53.480469 44.863281 53.386719 C 41.484375 52.0625 34.757812 49.945312 34.757812 49.945312 C 28.003906 47.222656 23.539062 49.726562 21.003906 51.921875 C 19.851562 50.320312 18.914062 48.519531 18.292969 46.496094 C 15.929688 38.761719 19.070312 29.707031 24.527344 24.414062 C 17.015625 29.917969 13.214844 39.582031 16.136719 48.976562 C 16.914062 51.480469 18.582031 54.207031 18.582031 54.207031 C 24.414062 63.855469 34.0625 65.855469 39.855469 65.429688 C 49.425781 64.734375 57.921875 56.949219 56.96875 52.742188 C 56.640625 51.28125 53.53125 53.386719 53.53125 53.386719 Z M 53.53125 53.386719 " fill-opacity="1" fill-rule="nonzero"/><path fill="#5ce1e6" d="M 30.632812 47.730469 C 31.914062 47.882812 33.273438 48.1875 34.753906 48.78125 C 34.753906 48.78125 37.164062 49.542969 39.816406 50.433594 L 39.816406 45.4375 L 49.636719 45.4375 L 49.636719 36.46875 L 39.816406 36.46875 L 39.816406 26.648438 L 30.632812 26.648438 L 30.632812 36.46875 L 20.816406 36.46875 L 20.816406 45.4375 L 30.632812 45.4375 Z M 30.632812 47.730469 " fill-opacity="1" fill-rule="nonzero"/><g fill="#ffffff" fill-opacity="1"><g transform="translate(67.101617, 56.924485)"><g><path d="M 22.390625 0 L 20.265625 -5.421875 L 8.234375 -5.421875 L 6.109375 0 L 0 0 L 11.78125 -28.5 L 16.703125 -28.5 L 28.5 0 Z M 10.3125 -10.859375 L 18.1875 -10.859375 L 14.25 -21.03125 Z M 10.3125 -10.859375 "/></g></g></g><g fill="#ffffff" fill-opacity="1"><g transform="translate(95.591099, 56.924485)"><g><path d="M 14.59375 -21.71875 C 16.539062 -21.71875 18.304688 -21.210938 19.890625 -20.203125 C 21.472656 -19.203125 22.738281 -17.851562 23.6875 -16.15625 C 24.632812 -14.457031 25.109375 -12.578125 25.109375 -10.515625 C 25.109375 -8.453125 24.632812 -6.570312 23.6875 -4.875 C 22.738281 -3.175781 21.472656 -1.828125 19.890625 -0.828125 C 18.304688 0.171875 16.539062 0.671875 14.59375 0.671875 C 11.988281 0.671875 9.835938 -0.300781 8.140625 -2.25 L 8.140625 10.859375 L 2.71875 10.859375 L 2.71875 -21.03125 L 8.140625 -21.03125 L 8.140625 -18.78125 C 9.835938 -20.738281 11.988281 -21.71875 14.59375 -21.71875 Z M 13.90625 -4.75 C 14.976562 -4.75 15.945312 -5.007812 16.8125 -5.53125 C 17.675781 -6.050781 18.367188 -6.75 18.890625 -7.625 C 19.410156 -8.507812 19.671875 -9.472656 19.671875 -10.515625 C 19.671875 -11.585938 19.410156 -12.554688 18.890625 -13.421875 C 18.367188 -14.285156 17.675781 -14.976562 16.8125 -15.5 C 15.945312 -16.019531 14.976562 -16.28125 13.90625 -16.28125 C 12.863281 -16.28125 11.90625 -16.019531 11.03125 -15.5 C 10.15625 -14.976562 9.453125 -14.285156 8.921875 -13.421875 C 8.398438 -12.554688 8.140625 -11.585938 8.140625 -10.515625 C 8.140625 -9.472656 8.398438 -8.507812 8.921875 -7.625 C 9.453125 -6.75 10.15625 -6.050781 11.03125 -5.53125 C 11.90625 -5.007812 12.863281 -4.75 13.90625 -4.75 Z M 13.90625 -4.75 "/></g></g></g><g fill="#ffffff" fill-opacity="1"><g transform="translate(122.045615, 56.924485)"><g><path d="M 14.59375 -21.71875 C 16.539062 -21.71875 18.304688 -21.210938 19.890625 -20.203125 C 21.472656 -19.203125 22.738281 -17.851562 23.6875 -16.15625 C 24.632812 -14.457031 25.109375 -12.578125 25.109375 -10.515625 C 25.109375 -8.453125 24.632812 -6.570312 23.6875 -4.875 C 22.738281 -3.175781 21.472656 -1.828125 19.890625 -0.828125 C 18.304688 0.171875 16.539062 0.671875 14.59375 0.671875 C 11.988281 0.671875 9.835938 -0.300781 8.140625 -2.25 L 8.140625 10.859375 L 2.71875 10.859375 L 2.71875 -21.03125 L 8.140625 -21.03125 L 8.140625 -18.78125 C 9.835938 -20.738281 11.988281 -21.71875 14.59375 -21.71875 Z M 13.90625 -4.75 C 14.976562 -4.75 15.945312 -5.007812 16.8125 -5.53125 C 17.675781 -6.050781 18.367188 -6.75 18.890625 -7.625 C 19.410156 -8.507812 19.671875 -9.472656 19.671875 -10.515625 C 19.671875 -11.585938 19.410156 -12.554688 18.890625 -13.421875 C 18.367188 -14.285156 17.675781 -14.976562 16.8125 -15.5 C 15.945312 -16.019531 14.976562 -16.28125 13.90625 -16.28125 C 12.863281 -16.28125 11.90625 -16.019531 11.03125 -15.5 C 10.15625 -14.976562 9.453125 -14.285156 8.921875 -13.421875 C 8.398438 -12.554688 8.140625 -11.585938 8.140625 -10.515625 C 8.140625 -9.472656 8.398438 -8.507812 8.921875 -7.625 C 9.453125 -6.75 10.15625 -6.050781 11.03125 -5.53125 C 11.90625 -5.007812 12.863281 -4.75 13.90625 -4.75 Z M 13.90625 -4.75 "/></g></g></g><g fill="#ffffff" fill-opacity="1"><g transform="translate(148.500132, 56.924485)"><g><path d="M 12.546875 -21.71875 C 14.609375 -21.71875 16.488281 -21.210938 18.1875 -20.203125 C 19.882812 -19.203125 21.234375 -17.851562 22.234375 -16.15625 C 23.242188 -14.457031 23.75 -12.578125 23.75 -10.515625 C 23.75 -8.453125 23.242188 -6.570312 22.234375 -4.875 C 21.234375 -3.175781 19.882812 -1.828125 18.1875 -0.828125 C 16.488281 0.171875 14.609375 0.671875 12.546875 0.671875 C 10.484375 0.671875 8.601562 0.171875 6.90625 -0.828125 C 5.21875 -1.828125 3.867188 -3.175781 2.859375 -4.875 C 1.859375 -6.570312 1.359375 -8.453125 1.359375 -10.515625 C 1.359375 -12.578125 1.859375 -14.457031 2.859375 -16.15625 C 3.867188 -17.851562 5.21875 -19.203125 6.90625 -20.203125 C 8.601562 -21.210938 10.484375 -21.71875 12.546875 -21.71875 Z M 12.546875 -4.75 C 13.617188 -4.75 14.585938 -5.007812 15.453125 -5.53125 C 16.316406 -6.050781 17.007812 -6.75 17.53125 -7.625 C 18.050781 -8.507812 18.3125 -9.472656 18.3125 -10.515625 C 18.3125 -11.585938 18.050781 -12.554688 17.53125 -13.421875 C 17.007812 -14.285156 16.316406 -14.976562 15.453125 -15.5 C 14.585938 -16.019531 13.617188 -16.28125 12.546875 -16.28125 C 11.503906 -16.28125 10.546875 -16.019531 9.671875 -15.5 C 8.796875 -14.976562 8.09375 -14.285156 7.5625 -13.421875 C 7.039062 -12.554688 6.78125 -11.585938 6.78125 -10.515625 C 6.78125 -9.472656 7.039062 -8.507812 7.5625 -7.625 C 8.09375 -6.75 8.796875 -6.050781 9.671875 -5.53125 C 10.546875 -5.007812 11.503906 -4.75 12.546875 -4.75 Z M 12.546875 -4.75 "/></g></g></g><g fill="#ffffff" fill-opacity="1"><g transform="translate(173.598, 56.924485)"><g><path d="M 5.421875 -23.75 C 4.378906 -23.75 3.5 -24.109375 2.78125 -24.828125 C 2.0625 -25.546875 1.703125 -26.429688 1.703125 -27.484375 C 1.703125 -28.523438 2.0625 -29.40625 2.78125 -30.125 C 3.5 -30.851562 4.378906 -31.21875 5.421875 -31.21875 C 6.472656 -31.21875 7.359375 -30.851562 8.078125 -30.125 C 8.796875 -29.40625 9.15625 -28.523438 9.15625 -27.484375 C 9.15625 -26.429688 8.796875 -25.546875 8.078125 -24.828125 C 7.359375 -24.109375 6.472656 -23.75 5.421875 -23.75 Z M 2.71875 0 L 2.71875 -21.03125 L 8.140625 -21.03125 L 8.140625 0 Z M 2.71875 0 "/></g></g></g><g fill="#ffffff" fill-opacity="1"><g transform="translate(184.451134, 56.924485)"><g><path d="M 14.5 -21.71875 C 16.9375 -21.71875 18.859375 -20.929688 20.265625 -19.359375 C 21.679688 -17.785156 22.390625 -15.40625 22.390625 -12.21875 L 22.390625 0 L 16.96875 0 L 16.96875 -11.53125 C 16.96875 -13.175781 16.640625 -14.378906 15.984375 -15.140625 C 15.335938 -15.898438 14.304688 -16.28125 12.890625 -16.28125 C 11.671875 -16.28125 10.570312 -15.851562 9.59375 -15 C 8.625 -14.15625 8.140625 -12.773438 8.140625 -10.859375 L 8.140625 0 L 2.71875 0 L 2.71875 -21.03125 L 8.140625 -21.03125 L 8.140625 -19 C 8.878906 -19.84375 9.726562 -20.503906 10.6875 -20.984375 C 11.644531 -21.472656 12.914062 -21.71875 14.5 -21.71875 Z M 14.5 -21.71875 "/></g></g></g><g fill="#ffffff" fill-opacity="1"><g transform="translate(208.870685, 56.924485)"><g><path d="M 4.078125 -5.984375 L 4.078125 -16.28125 L 1.359375 -16.28125 L 1.359375 -21.03125 L 4.078125 -21.03125 L 4.078125 -28.5 L 9.5 -28.5 L 9.5 -21.03125 L 13.5625 -21.03125 L 13.5625 -16.28125 L 9.5 -16.28125 L 9.5 -7.46875 C 9.5 -6.394531 9.65625 -5.628906 9.96875 -5.171875 C 10.28125 -4.722656 10.738281 -4.488281 11.34375 -4.46875 C 11.945312 -4.457031 12.6875 -4.550781 13.5625 -4.75 L 13.5625 0 C 13.03125 0.195312 12.457031 0.359375 11.84375 0.484375 C 11.238281 0.609375 10.484375 0.671875 9.578125 0.671875 C 7.660156 0.671875 6.265625 0.0507812 5.390625 -1.1875 C 4.515625 -2.425781 4.078125 -4.023438 4.078125 -5.984375 Z M 4.078125 -5.984375 "/></g></g></g><g fill="#ffffff" fill-opacity="1"><g transform="translate(224.472067, 56.924485)"><g><path d="M 25.78125 -21.71875 C 28.21875 -21.71875 30.179688 -20.929688 31.671875 -19.359375 C 33.171875 -17.785156 33.921875 -15.40625 33.921875 -12.21875 L 33.921875 0 L 28.5 0 L 28.5 -11.53125 C 28.5 -13.175781 28.257812 -14.378906 27.78125 -15.140625 C 27.300781 -15.898438 26.410156 -16.28125 25.109375 -16.28125 C 23.890625 -16.28125 22.90625 -15.851562 22.15625 -15 C 21.40625 -14.15625 21.03125 -12.773438 21.03125 -10.859375 L 21.03125 0 L 15.609375 0 L 15.609375 -11.53125 C 15.609375 -13.175781 15.34375 -14.378906 14.8125 -15.140625 C 14.289062 -15.898438 13.425781 -16.28125 12.21875 -16.28125 C 11 -16.28125 10.015625 -15.851562 9.265625 -15 C 8.515625 -14.15625 8.140625 -12.773438 8.140625 -10.859375 L 8.140625 0 L 2.71875 0 L 2.71875 -21.03125 L 8.140625 -21.03125 L 8.140625 -19 C 8.796875 -19.820312 9.59375 -20.476562 10.53125 -20.96875 C 11.476562 -21.46875 12.488281 -21.71875 13.5625 -21.71875 C 16.226562 -21.71875 18.195312 -20.769531 19.46875 -18.875 C 20.257812 -19.75 21.148438 -20.441406 22.140625 -20.953125 C 23.128906 -21.460938 24.34375 -21.71875 25.78125 -21.71875 Z M 25.78125 -21.71875 "/></g></g></g><g fill="#ffffff" fill-opacity="1"><g transform="translate(260.42307, 56.924485)"><g><path d="M 22.390625 -10.515625 C 22.390625 -10.285156 22.378906 -10.015625 22.359375 -9.703125 C 22.347656 -9.398438 22.332031 -9.109375 22.3125 -8.828125 L 7 -8.828125 C 7.394531 -7.441406 8.109375 -6.300781 9.140625 -5.40625 C 10.171875 -4.519531 11.535156 -4.078125 13.234375 -4.078125 C 14.335938 -4.078125 15.4375 -4.242188 16.53125 -4.578125 C 17.632812 -4.921875 18.625 -5.398438 19.5 -6.015625 L 21.078125 -1.3125 C 21.078125 -1.3125 20.765625 -1.148438 20.140625 -0.828125 C 19.515625 -0.503906 18.613281 -0.175781 17.4375 0.15625 C 16.269531 0.5 14.835938 0.671875 13.140625 0.671875 C 10.429688 0.671875 8.207031 0.164062 6.46875 -0.84375 C 4.726562 -1.863281 3.441406 -3.222656 2.609375 -4.921875 C 1.773438 -6.617188 1.359375 -8.484375 1.359375 -10.515625 C 1.359375 -12.578125 1.753906 -14.457031 2.546875 -16.15625 C 3.335938 -17.851562 4.535156 -19.203125 6.140625 -20.203125 C 7.753906 -21.210938 9.78125 -21.71875 12.21875 -21.71875 C 15.488281 -21.71875 18 -20.734375 19.75 -18.765625 C 21.507812 -16.796875 22.390625 -14.046875 22.390625 -10.515625 Z M 7.125 -12.890625 L 16.625 -12.890625 C 16.625 -13.484375 16.453125 -14.085938 16.109375 -14.703125 C 15.773438 -15.328125 15.257812 -15.859375 14.5625 -16.296875 C 13.875 -16.742188 12.976562 -16.96875 11.875 -16.96875 C 10.96875 -16.96875 10.15625 -16.742188 9.4375 -16.296875 C 8.71875 -15.859375 8.148438 -15.328125 7.734375 -14.703125 C 7.328125 -14.085938 7.125 -13.484375 7.125 -12.890625 Z M 7.125 -12.890625 "/></g></g></g><g fill="#ffffff" fill-opacity="1"><g transform="translate(284.164291, 56.924485)"><g><path d="M 14.5 -21.71875 C 16.9375 -21.71875 18.859375 -20.929688 20.265625 -19.359375 C 21.679688 -17.785156 22.390625 -15.40625 22.390625 -12.21875 L 22.390625 0 L 16.96875 0 L 16.96875 -11.53125 C 16.96875 -13.175781 16.640625 -14.378906 15.984375 -15.140625 C 15.335938 -15.898438 14.304688 -16.28125 12.890625 -16.28125 C 11.671875 -16.28125 10.570312 -15.851562 9.59375 -15 C 8.625 -14.15625 8.140625 -12.773438 8.140625 -10.859375 L 8.140625 0 L 2.71875 0 L 2.71875 -21.03125 L 8.140625 -21.03125 L 8.140625 -19 C 8.878906 -19.84375 9.726562 -20.503906 10.6875 -20.984375 C 11.644531 -21.472656 12.914062 -21.71875 14.5 -21.71875 Z M 14.5 -21.71875 "/></g></g></g><g fill="#ffffff" fill-opacity="1"><g transform="translate(308.58383, 56.924485)"><g><path d="M 4.078125 -5.984375 L 4.078125 -16.28125 L 1.359375 -16.28125 L 1.359375 -21.03125 L 4.078125 -21.03125 L 4.078125 -28.5 L 9.5 -28.5 L 9.5 -21.03125 L 13.5625 -21.03125 L 13.5625 -16.28125 L 9.5 -16.28125 L 9.5 -7.46875 C 9.5 -6.394531 9.65625 -5.628906 9.96875 -5.171875 C 10.28125 -4.722656 10.738281 -4.488281 11.34375 -4.46875 C 11.945312 -4.457031 12.6875 -4.550781 13.5625 -4.75 L 13.5625 0 C 13.03125 0.195312 12.457031 0.359375 11.84375 0.484375 C 11.238281 0.609375 10.484375 0.671875 9.578125 0.671875 C 7.660156 0.671875 6.265625 0.0507812 5.390625 -1.1875 C 4.515625 -2.425781 4.078125 -4.023438 4.078125 -5.984375 Z M 4.078125 -5.984375 "/></g></g></g><g fill="#ffffff" fill-opacity="1"><g transform="translate(324.185213, 56.924485)"><g/></g></g><g fill="#ffffff" fill-opacity="1"><g transform="translate(337.073323, 56.924485)"><g><path d="M 18.40625 -14.921875 L 28.5 0 L 21.71875 0 L 14.59375 -10.859375 L 7.46875 0 L 0.671875 0 L 10.765625 -14.921875 L 1.3125 -28.5 L 8.140625 -28.5 L 14.59375 -18.484375 L 21.03125 -28.5 L 27.859375 -28.5 Z M 18.40625 -14.921875 "/></g></g></g></svg>